# xmcd
#
# Track frame offsets:
#	150
#	13909
#	35295
#	49881
#	73507
#	92394
#	112436
#	129749
#	151910
#	170175
#
# Disc length: 2483 seconds
#
# Revision: 1
# Processed by: cddbd v1.5.1PL0 Copyright (c) Steve Scherf et al.
# Submitted via: audiograbber 1.83.01
#
DISCID=8a09b10a
DTITLE=Ayný Mahallenin Çocuklarý - Ayný Mahallenin Çocuklarý
DYEAR=2004
DGENRE=Pop
TTITLE0=Yaþar - Ara Beni
TTITLE1=Feridun Düzaðaç - Hasretler Ayrýlýkla Baþlar
TTITLE2=Haluk Levent - Sormalý
TTITLE3=Murat Göðebakan - Bebeðim
TTITLE4=Kurtuluþ - Bazen Sorardým
TTITLE5=Feridun Düzaðaç, Haluk Levent, Kurtuluþ, Murat Göðebakan and Yaþar - Akde
TTITLE5=niz Akþamlarý
TTITLE6=Feridun Düzaðaç - Minör Þarký
TTITLE7=Murat Göðebakan - Aðlamazdýn Anam
TTITLE8=Kurtuluþ - Sevgi Üþümez
TTITLE9=Yaþar - Divane
EXTD=
EXTT0=
EXTT1=
EXTT2=
EXTT3=
EXTT4=
EXTT5=
EXTT6=
EXTT7=
EXTT8=
EXTT9=
PLAYORDER=
